<svg width="21" height="21" viewBox="0 0 21 21" fill="none" xmlns="http://www.w3.org/2000/svg">
<g id="bookmark 1" clip-path="url(#clip0_31_277)">
<g id="Group">
<path id="Vector" d="M16.4374 0.0698853H4.56249C4.04554 0.0698853 3.625 0.49043 3.625 1.00738V19.2933C3.625 19.9437 4.37812 20.301 4.88253 19.9027L10.3063 15.6208C10.4203 15.5308 10.5795 15.5308 10.6936 15.6208L16.1174 19.9028C16.6215 20.3006 17.3749 19.9441 17.3749 19.2933V1.00738C17.3749 0.49043 16.9544 0.0698853 16.4374 0.0698853V0.0698853ZM16.7499 19.2933C16.7499 19.4203 16.6029 19.4898 16.5046 19.4122L11.0809 15.1303C10.7389 14.8603 10.2611 14.8602 9.91902 15.1303L4.49531 19.4122C4.39687 19.4899 4.25004 19.4202 4.25004 19.2933V1.00738C4.25004 0.835076 4.39023 0.694882 4.56253 0.694882H16.4375C16.6098 0.694882 16.75 0.835076 16.75 1.00738V19.2933H16.7499Z" fill="#929292"/>
<path id="Vector_2" d="M14.2309 5.92792L12.0401 5.60961L11.0604 3.62442C10.8312 3.16001 10.1686 3.1602 9.93954 3.62442L8.95978 5.60961L6.76905 5.92792C6.25655 6.00242 6.05199 6.63265 6.42269 6.99397L8.00795 8.53924L7.63369 10.7211C7.54615 11.2316 8.08236 11.6208 8.54052 11.38L10.5 10.3499L12.4595 11.38C12.9178 11.621 13.4538 11.2313 13.3663 10.7211L12.9921 8.53928L14.5773 6.99405C14.9481 6.63245 14.7432 6.00238 14.2309 5.92792ZM12.4381 8.20635C12.3645 8.27815 12.3309 8.38159 12.3483 8.48295L12.7503 10.8268C10.4638 9.62471 10.6097 9.68428 10.5 9.68428C10.3898 9.68428 10.5353 9.62514 8.24967 10.8268L8.65169 8.48295C8.66908 8.38159 8.63548 8.27815 8.56181 8.20635L6.85893 6.54644L9.21227 6.20449C9.31403 6.18968 9.40204 6.12578 9.44755 6.03355L10.4989 3.89911C10.5019 3.90301 10.5399 3.9818 11.5525 6.03355C11.598 6.12578 11.686 6.18972 11.7877 6.20449L14.1411 6.54644L12.4381 8.20635Z" fill="#929292"/>
</g>
</g>
<defs>
<clipPath id="clip0_31_277">
<rect width="20" height="20" fill="white" transform="translate(0.5 0.0698853)"/>
</clipPath>
</defs>
</svg>
