<svg width="180" height="35" viewBox="0 0 180 35" fill="none" xmlns="http://www.w3.org/2000/svg">
<g id="fast shop">
<path d="M18.974 5.22283V2.02285H0.803955V27.7698H4.4821V17.3607H17.3924V14.1975H4.4821V5.22283H18.974Z" fill="white"/>
<path d="M30.0529 8.09178C26.9265 8.09178 24.0208 8.97454 21.9978 10.5929L23.4691 13.2412C24.9771 11.9538 27.3311 11.1446 29.6484 11.1446C33.1426 11.1446 34.8713 12.8734 34.8713 15.8527V16.5515H29.2805C23.4691 16.5515 21.4461 19.1262 21.4461 22.2526C21.4461 25.6365 24.2415 27.9905 28.6553 27.9905C31.7081 27.9905 33.8782 26.9607 35.0552 25.1951V27.7698H38.4023V15.9998C38.4023 10.6665 35.3863 8.09178 30.0529 8.09178ZM29.2438 25.2687C26.5587 25.2687 24.9403 24.0549 24.9403 22.1055C24.9403 20.4503 25.9334 19.0894 29.4277 19.0894H34.8713V21.8113C33.9886 24.0549 31.892 25.2687 29.2438 25.2687Z" fill="white"/>
<path d="M50.5276 27.9905C55.7137 27.9905 58.9505 25.7469 58.9505 22.2158C58.9505 14.6389 46.5919 18.3906 46.5919 13.7929C46.5919 12.2481 48.1 11.1079 51.1896 11.1079C53.1023 11.1079 55.0517 11.5125 56.8172 12.6527L58.3252 9.85729C56.6333 8.75385 53.7643 8.09178 51.2264 8.09178C46.2241 8.09178 43.0977 10.4458 43.0977 13.94C43.0977 21.7009 55.4195 17.9124 55.4195 22.2894C55.4195 23.9446 54.0586 24.9377 50.785 24.9377C48.2471 24.9377 45.5988 24.0917 43.9437 22.9147L42.4724 25.7101C44.0908 26.9974 47.2908 27.9905 50.5276 27.9905Z" fill="white"/>
<path d="M73.2208 24.0917C72.4852 24.6802 71.4921 25.0112 70.4622 25.0112C68.5128 25.0112 67.4094 23.8342 67.4094 21.7377V11.1814H73.0002V8.27569H67.4094V4.00904H63.8784V8.27569H60.568V11.1814H63.8784V21.8848C63.8784 25.8204 66.122 27.9905 70.0576 27.9905C71.6392 27.9905 73.2576 27.5492 74.3243 26.6296L73.2208 24.0917Z" fill="white"/>
<path d="M96.4894 28.0641C103.294 28.0641 106.457 24.6802 106.457 20.7446C106.457 11.2918 90.8618 15.2274 90.8618 8.93776C90.8618 6.69409 92.7377 4.85502 97.1147 4.85502C99.3951 4.85502 101.933 5.51708 104.177 6.95156L105.391 4.00904C103.257 2.53779 100.131 1.7286 97.1147 1.7286C90.3469 1.7286 87.2573 5.11249 87.2573 9.08488C87.2573 18.6481 102.853 14.6757 102.853 20.9653C102.853 23.2089 100.94 24.9377 96.4894 24.9377C93.1791 24.9377 89.9055 23.6871 87.9929 21.9584L86.632 24.8273C88.6917 26.74 92.5538 28.0641 96.4894 28.0641Z" fill="white"/>
<path d="M121.725 8.09178C118.746 8.09178 116.318 9.15844 114.847 11.0343V0.478027H111.316V27.7698H114.847V17.7285C114.847 13.4987 117.274 11.255 121.026 11.255C124.373 11.255 126.286 13.1308 126.286 16.9561V27.7698H129.817V16.5515C129.817 10.8136 126.47 8.09178 121.725 8.09178Z" fill="white"/>
<path d="M144.809 27.9905C150.657 27.9905 154.924 23.8342 154.924 18.0228C154.924 12.2113 150.657 8.09178 144.809 8.09178C138.96 8.09178 134.657 12.2113 134.657 18.0228C134.657 23.8342 138.96 27.9905 144.809 27.9905ZM144.809 24.9009C141.057 24.9009 138.225 22.1791 138.225 18.0228C138.225 13.8665 141.057 11.1814 144.809 11.1814C148.56 11.1814 151.356 13.8665 151.356 18.0228C151.356 22.1791 148.56 24.9009 144.809 24.9009Z" fill="white"/>
<path d="M170.143 8.09178C167.274 8.09178 164.772 9.19523 163.191 11.3653V8.27569H159.807V34.9054H163.338V24.8273C164.956 26.9239 167.384 27.9905 170.143 27.9905C175.844 27.9905 180 24.0181 180 18.0228C180 12.0642 175.844 8.09178 170.143 8.09178ZM169.848 24.9009C166.133 24.9009 163.301 22.1791 163.301 18.0228C163.301 13.9032 166.133 11.1814 169.848 11.1814C173.6 11.1814 176.432 13.9032 176.432 18.0228C176.432 22.1791 173.6 24.9009 169.848 24.9009Z" fill="white"/>
</g>
</svg>
