<svg width="104" height="77" viewBox="0 0 104 77" fill="none" xmlns="http://www.w3.org/2000/svg">
<g id="Standard Collection 7">
<g id="Group">
<path id="Vector" d="M103.594 49.2355C103.594 54.021 102.34 58.723 99.9574 62.8734C97.5748 67.0233 94.1464 70.477 90.0141 72.8899C85.8814 75.3032 81.1887 76.5914 76.4035 76.6267C71.6179 76.662 66.9067 75.4433 62.7391 73.0913C59.9372 75.1502 56.6047 76.3639 53.1353 76.5895C49.6659 76.8151 46.2041 76.0428 43.1594 74.3645C39.3823 75.8702 35.3515 76.6386 31.2853 76.6279C14.0342 76.6279 0 63.0161 0 46.2839C0 29.5518 14.0342 15.94 31.2853 15.94H31.2926C34.7074 10.2423 39.7717 5.7156 45.8151 2.95869C51.8586 0.201778 58.5964 -0.655413 65.1378 0.500515C71.6792 1.65644 77.7154 4.77102 82.4481 9.43221C87.1804 14.0934 90.3866 20.0816 91.6418 26.6045C95.3387 29.1059 98.3627 32.4789 100.447 36.4258C102.531 40.3728 103.612 44.7721 103.594 49.2355ZM62.4617 66.0704C63.0985 66.07 63.7204 66.2637 64.2444 66.6255C66.5703 68.2236 69.1934 69.3392 71.9581 69.9062C74.7228 70.4731 77.5731 70.4797 80.3405 69.9257C83.1075 69.3714 85.7357 68.2681 88.0692 66.6807C90.4027 65.0933 92.3941 63.054 93.9254 60.6833C95.4568 58.3129 96.4972 55.6591 96.9855 52.8794C97.4735 50.0997 97.3987 47.2502 96.7665 44.5001C96.1339 41.7496 94.9562 39.1541 93.3032 36.8666C91.6498 34.5793 89.5545 32.6468 87.1416 31.1833C86.7457 30.9429 86.4081 30.618 86.1526 30.2319C85.8972 29.8459 85.7299 29.4081 85.6632 28.9499C84.848 23.4001 82.2939 18.2518 78.3683 14.245C74.4424 10.2384 69.3472 7.57978 63.8155 6.65154C58.2834 5.72327 52.5998 6.57321 47.5809 9.07906C42.5625 11.5849 38.4681 15.6177 35.886 20.5974C35.6068 21.1383 35.176 21.586 34.6462 21.8858C34.1165 22.1856 33.5108 22.3244 32.9034 22.2854C32.282 22.247 31.7668 22.2286 31.2827 22.2286C17.4978 22.2286 6.28285 33.0208 6.28285 46.2854C6.28285 59.5501 17.4994 70.3419 31.2827 70.3419C35.0162 70.3538 38.7071 69.5475 42.0956 67.98C42.5912 67.751 43.1379 67.6547 43.6819 67.7008C44.2258 67.7472 44.7483 67.9344 45.1979 68.244C47.4704 69.8068 50.2144 70.533 52.9627 70.299C55.7105 70.065 58.2922 68.8854 60.2678 66.9608C60.8552 66.3892 61.6423 66.0696 62.4617 66.0704Z" fill="#6AE0EC"/>
<path id="Vector_2" d="M35.3656 35.1699H30.6935C30.5076 35.1699 30.3294 35.2438 30.1979 35.3752C30.0665 35.5067 29.9927 35.6849 29.9927 35.8708V46.8502H30.0046L36.0657 40.7891V35.8712C36.0658 35.6853 35.9921 35.5071 35.8608 35.3756C35.7295 35.2441 35.5514 35.1701 35.3656 35.1699Z" fill="white"/>
<path id="Vector_3" d="M54.5006 30.0492C53.7901 29.3386 52.8261 28.9395 51.8214 28.9395C50.8163 28.9395 49.8527 29.3386 49.1423 30.0492L37.2475 41.9439L36.0663 43.1255L30.0052 49.1866L16.1138 63.078C19.8234 65.7906 24.1904 67.4631 28.7631 67.922C33.3357 68.3811 37.948 67.6105 42.1229 65.6893C42.6185 65.4607 43.1648 65.3648 43.7087 65.4108C44.2523 65.4572 44.7748 65.6444 45.2244 65.9536C47.4965 67.5165 50.2409 68.2427 52.9888 68.0086C55.7366 67.7746 58.3183 66.5946 60.2936 64.6701C60.8153 64.1633 61.4966 63.8526 62.2212 63.7916C62.9463 63.7306 63.6697 63.9224 64.269 64.3348C67.8458 66.7983 72.097 68.0965 76.4399 68.0505C80.7828 68.0044 85.0056 66.6173 88.5295 64.0785L54.5006 30.0492ZM51.541 58.6542C51.541 58.7965 51.4842 58.9331 51.3837 59.034C51.2828 59.1345 51.1463 59.1913 51.0039 59.1913H46.6395C46.4972 59.1913 46.3607 59.1345 46.2598 59.034C46.1589 58.9331 46.1025 58.7965 46.1025 58.6542V54.2898C46.1025 54.1475 46.1589 54.0109 46.2598 53.91C46.3607 53.8095 46.4972 53.7528 46.6395 53.7528H51.0039C51.1463 53.7528 51.2828 53.8095 51.3837 53.91C51.4842 54.0109 51.541 54.1475 51.541 54.2898V58.6542ZM51.541 52.0445C51.541 52.1868 51.4842 52.3234 51.3837 52.4243C51.2828 52.5252 51.1463 52.5816 51.0039 52.5816H46.6395C46.4972 52.5816 46.3607 52.5252 46.2598 52.4243C46.1589 52.3234 46.1025 52.1868 46.1025 52.0445V47.6801C46.1025 47.5378 46.1589 47.4012 46.2598 47.3003C46.3607 47.1998 46.4972 47.1431 46.6395 47.1431H51.0039C51.1463 47.1431 51.2828 47.1998 51.3837 47.3003C51.4842 47.4012 51.541 47.5378 51.541 47.6801V52.0445ZM58.5408 58.6542C58.5408 58.7965 58.484 58.9331 58.3835 59.034C58.2826 59.1345 58.1461 59.1913 58.0038 59.1913H53.6394C53.497 59.1913 53.3605 59.1345 53.2596 59.034C53.1587 58.9331 53.1023 58.7965 53.1023 58.6542V54.2898C53.1023 54.1475 53.1587 54.0109 53.2596 53.91C53.3605 53.8095 53.497 53.7528 53.6394 53.7528H58.0038C58.1461 53.7528 58.2826 53.8095 58.3835 53.91C58.484 54.0109 58.5408 54.1475 58.5408 54.2898V58.6542ZM58.5408 52.0445C58.5408 52.1868 58.484 52.3234 58.3835 52.4243C58.2826 52.5252 58.1461 52.5816 58.0038 52.5816H53.6394C53.497 52.5816 53.3605 52.5252 53.2596 52.4243C53.1587 52.3234 53.1023 52.1868 53.1023 52.0445V47.6801C53.1023 47.5378 53.1587 47.4012 53.2596 47.3003C53.3605 47.1998 53.497 47.1431 53.6394 47.1431H58.0038C58.1461 47.1431 58.2826 47.1998 58.3835 47.3003C58.484 47.4012 58.5408 47.5378 58.5408 47.6801V52.0445Z" fill="white"/>
</g>
</g>
</svg>
